<?xml version="1.0" standalone="no"?>
<!DOCTYPE svg PUBLIC "-//W3C//DTD SVG 20010904//EN"
 "http://www.w3.org/TR/2001/REC-SVG-20010904/DTD/svg10.dtd">
<svg version="1.0" xmlns="http://www.w3.org/2000/svg"
 width="700.000000pt" height="700.000000pt" viewBox="0 0 700.000000 700.000000"
 preserveAspectRatio="xMidYMid meet">
<metadata>
Created by potrace 1.14, written by Peter Selinger 2001-2017
</metadata>
<g transform="translate(0.000000,700.000000) scale(0.100000,-0.100000)"
fill="#000000" stroke="none">
<path d="M626 5832 c-77 -9 -110 -63 -98 -160 1 -7 48 -59 105 -116 56 -57
338 -344 627 -636 289 -293 552 -559 584 -591 58 -58 59 -59 41 -79 -26 -28
-278 -285 -850 -865 -269 -273 -496 -508 -503 -521 -14 -27 -9 -82 10 -113 32
-52 13 -51 747 -51 l681 0 102 -104 c272 -274 1181 -1196 1239 -1256 36 -37
75 -73 87 -79 15 -8 430 -11 1485 -11 l1464 0 28 22 c15 12 33 36 41 53 25 60
6 90 -149 248 -277 283 -1172 1190 -1196 1212 -13 13 -22 27 -20 33 3 9 243
253 1188 1211 173 175 196 208 180 265 -12 43 -62 86 -102 87 -17 0 -327 1
-687 1 l-655 1 -154 156 c-1004 1019 -1268 1282 -1290 1288 -26 6 -2850 11
-2905 5z m2844 -256 c14 -12 261 -263 550 -556 289 -293 546 -553 572 -578 26
-25 45 -49 43 -52 -3 -4 -265 -7 -582 -7 -451 0 -584 -3 -603 -13 -14 -7 -110
-99 -214 -204 -103 -105 -420 -426 -702 -712 l-515 -522 -550 0 -551 -1 54 57
c29 31 195 201 370 377 709 718 801 811 819 840 21 33 24 70 10 107 -5 13 -95
111 -201 218 -437 444 -829 842 -939 953 l-116 117 1266 0 1265 -1 24 -23z
m952 -1608 c-99 -101 -265 -268 -367 -373 -103 -104 -292 -297 -422 -427
l-234 -237 -528 0 -527 -1 200 204 c111 112 381 386 601 610 l400 406 529 0
529 0 -181 -182z m1604 175 c-33 -33 -1116 -1131 -1170 -1185 -79 -82 -97
-116 -86 -165 10 -41 10 -41 168 -202 100 -102 1064 -1080 1086 -1102 4 -3
-563 -6 -1260 -6 l-1267 -1 -101 103 c-846 858 -1082 1098 -1084 1106 -2 5
221 9 580 10 321 0 591 3 600 7 9 4 38 28 65 53 54 52 1040 1051 1239 1256
l129 132 554 1 c305 0 551 -3 547 -7z"/>
</g>
</svg>
